<svg width="25" height="25" viewBox="0 0 25 25" xmlns="http://www.w3.org/2000/svg"><title>uv index</title><g fill="none" fill-rule="evenodd"><circle fill="#293A4B" cx="12.5" cy="12.5" r="12.5"/><path d="M8.458 16.698c.312 0 .591-.052.837-.156.246-.104.453-.25.621-.438.168-.188.297-.416.387-.684.09-.268.135-.568.135-.9V9.324h1.614v5.196c0 .516-.083.993-.249 1.431a3.256 3.256 0 0 1-.714 1.134 3.24 3.24 0 0 1-1.131.744 4.001 4.001 0 0 1-1.5.267c-.56 0-1.062-.089-1.506-.267a3.24 3.24 0 0 1-1.131-.744 3.256 3.256 0 0 1-.714-1.134 4.006 4.006 0 0 1-.249-1.431V9.324h1.614v5.19c0 .332.045.632.135.9.09.268.22.497.39.687.17.19.378.337.624.441.246.104.525.156.837.156zM21.31 9.324L17.806 18h-1.458l-3.504-8.676h1.296c.14 0 .254.034.342.102a.624.624 0 0 1 .198.264l2.046 5.292c.068.172.133.361.195.567.062.206.121.421.177.645.048-.224.1-.439.156-.645.056-.206.118-.395.186-.567l2.034-5.292a.568.568 0 0 1 .534-.366h1.302z" fill="#FFF"/></g></svg>